<?xml version="1.0" encoding="UTF-8" standalone="no"?><!DOCTYPE svg PUBLIC "-//W3C//DTD SVG 1.1//EN" "http://www.w3.org/Graphics/SVG/1.1/DTD/svg11.dtd"><svg width="100%" height="100%" viewBox="0 0 1024 1024" version="1.1" xmlns="http://www.w3.org/2000/svg" xmlns:xlink="http://www.w3.org/1999/xlink" xml:space="preserve" xmlns:serif="http://www.serif.com/" style="fill-rule:evenodd;clip-rule:evenodd;stroke-linejoin:round;stroke-miterlimit:1.41421;"><g id="Facebook"><path d="M512.476,0c282.843,0 512.475,229.42 512.475,512c0,282.58 -229.632,512 -512.475,512c-282.843,0 -512.476,-229.42 -512.476,-512c0,-282.58 229.633,-512 512.476,-512Zm154.151,313.243l0,-114.191l-102.621,-0.419c-113.914,0 -139.798,85.243 -139.798,139.67l0,76.115l-65.883,0l0,117.621l65.883,0l0,334.701l138.558,0l0,-334.701l91.443,0l12.112,-117.507l-103.536,0l0,-69.235c0,-25.955 17.166,-32.054 29.375,-32.054l74.467,0Z" style="fill:#b09d40;"/></g></svg>