<?xml version="1.0" encoding="UTF-8" standalone="no"?><!DOCTYPE svg PUBLIC "-//W3C//DTD SVG 1.1//EN" "http://www.w3.org/Graphics/SVG/1.1/DTD/svg11.dtd"><svg width="100%" height="100%" viewBox="0 0 1024 1024" version="1.1" xmlns="http://www.w3.org/2000/svg" xmlns:xlink="http://www.w3.org/1999/xlink" xml:space="preserve" xmlns:serif="http://www.serif.com/" style="fill-rule:evenodd;clip-rule:evenodd;stroke-linejoin:round;stroke-miterlimit:1.41421;"><path d="M675.738,387.537c-20.702,0 -37.543,-16.842 -37.543,-37.543c0,-20.683 16.841,-37.525 37.543,-37.525c20.701,0 37.543,16.842 37.543,37.525c0,20.701 -16.842,37.543 -37.543,37.543m-163.736,284.485c-87.467,0 -158.638,-71.153 -158.638,-158.656c0,-87.467 71.171,-158.62 158.638,-158.62c87.485,0 158.656,71.153 158.656,158.62c0,87.484 -71.171,158.656 -158.656,158.656m152.611,-399.59l-305.204,0c-48.722,0 -88.359,39.618 -88.359,88.34l0,305.205c0,48.722 39.637,88.359 88.359,88.359l305.204,0c48.686,0 88.341,-39.637 88.341,-88.359l0,-305.205c0,-48.722 -39.637,-88.34 -88.341,-88.34" style="fill:#b09d40;fill-rule:nonzero;"/><ellipse cx="512" cy="513.391" rx="91.6" ry="91.609" style="fill:#b09d40;"/><path d="M819.99,665.977c0,85.682 -69.696,155.379 -155.379,155.379l-305.204,0c-85.682,0 -155.379,-69.697 -155.379,-155.379l0,-305.205c0,-85.682 69.697,-155.378 155.379,-155.378l305.204,0c85.683,0 155.379,69.696 155.379,155.378l0,305.205Zm-307.99,-665.977c-282.755,0 -512,229.245 -512,512c0,282.755 229.245,512 512,512c282.755,0 512,-229.245 512,-512c0,-282.755 -229.245,-512 -512,-512" style="fill:#b09d40;fill-rule:nonzero;"/></svg>