<?xml version="1.0" encoding="UTF-8" standalone="no"?><!DOCTYPE svg PUBLIC "-//W3C//DTD SVG 1.1//EN" "http://www.w3.org/Graphics/SVG/1.1/DTD/svg11.dtd"><svg width="100%" height="100%" viewBox="0 0 168 101" version="1.1" xmlns="http://www.w3.org/2000/svg" xmlns:xlink="http://www.w3.org/1999/xlink" xml:space="preserve" xmlns:serif="http://www.serif.com/" style="fill-rule:evenodd;clip-rule:evenodd;stroke-miterlimit:10;"><g><path d="M36.404,23.857l-0.175,-6.342l96.351,-0.176l0,6.341" style="fill:none;stroke:#b09d3f;stroke-width:0.48px;"/><path d="M60.069,23.627l23.5,-20.863l24.073,21.092" style="fill:none;stroke:#b09d3f;stroke-width:0.48px;"/><path d="M50.848,17.163l-0.176,-7.751l66.936,0.529l0.176,7.398" style="fill:none;stroke:#b09d3f;stroke-width:0.48px;"/><path d="M154.07,23.68l-140.503,0" style="fill:none;stroke:#b09d3f;stroke-width:0.48px;"/><path d="M126.142,78.912l0.158,5.72l-86.926,0.159l0,-5.72" style="fill:none;stroke:#b09d3f;stroke-width:0.48px;"/><path d="M104.792,79.118l-21.202,18.822l-21.717,-19.028" style="fill:none;stroke:#b09d3f;stroke-width:0.48px;"/><path d="M113.111,84.95l0.158,6.992l-60.387,-0.477l-0.159,-6.674" style="fill:none;stroke:#b09d3f;stroke-width:0.48px;"/><path d="M23.512,79.071l119.707,0" style="fill:none;stroke:#b09d3f;stroke-width:0.48px;"/><path d="M5.185,37.605c-0.329,0.474 -0.585,0.95 -0.84,1.424l0,17.308c0.255,0.511 0.511,0.985 0.84,1.423l0,-20.155Zm-1.643,3.25c-0.146,0.329 -0.256,0.693 -0.365,1.059c-0.585,1.789 -0.876,3.724 -0.876,5.732l0,0.11c0,2.008 0.291,3.944 0.876,5.732c0.109,0.366 0.219,0.694 0.365,1.023l0,-13.656Zm5.221,21.506c-1.461,-0.839 -2.739,-1.971 -3.797,-3.395c-1.096,-1.424 -1.936,-3.104 -2.52,-5.039c-0.621,-1.936 -0.913,-3.98 -0.913,-6.135l0,-0.11c0,-2.154 0.292,-4.198 0.913,-6.134c0.584,-1.898 1.424,-3.615 2.52,-5.038c1.058,-1.461 2.336,-2.63 3.833,-3.469c1.461,-0.841 3.068,-1.278 4.857,-1.278c1.132,0 2.154,0.146 3.067,0.364c0.912,0.256 1.753,0.621 2.483,1.06c0.766,0.438 1.424,0.949 2.045,1.57c0.584,0.584 1.205,1.205 1.753,1.898l-0.548,0.658c-0.475,-0.585 -1.023,-1.169 -1.57,-1.717c-0.585,-0.547 -1.242,-1.059 -1.936,-1.496c-0.693,-0.439 -1.497,-0.804 -2.373,-1.059c-0.876,-0.256 -1.862,-0.402 -2.957,-0.402c-1.644,0 -3.177,0.402 -4.565,1.205c-1.168,0.693 -2.191,1.57 -3.067,2.666l0,22.345c0.876,1.097 1.935,1.973 3.104,2.667c1.387,0.803 2.884,1.241 4.528,1.241c0.985,0 1.935,-0.146 2.811,-0.438c0.876,-0.292 1.68,-0.657 2.41,-1.096c0.767,-0.438 1.46,-0.986 2.081,-1.569c0.621,-0.621 1.169,-1.242 1.643,-1.936l0.585,0.657c-0.548,0.731 -1.132,1.388 -1.79,2.009c-0.657,0.62 -1.388,1.205 -2.191,1.68c-0.803,0.474 -1.679,0.876 -2.592,1.131c-0.913,0.292 -1.935,0.438 -2.994,0.438c-1.753,0 -3.359,-0.438 -4.82,-1.278" style="fill:#b09d3f;fill-rule:nonzero;"/><path d="M30.234,32.858l0.803,0l0,17.381l13.912,0l0,-17.381l0.767,0l0,30.781l-0.767,0l0,-12.524l-13.912,0l0,12.524l-0.803,0l0,-30.781Zm-1.607,0l0.803,0l0,30.781l-0.803,0l0,-30.781Zm-1.643,0l0.767,0l0,30.781l-0.767,0l0,-30.781Z" style="fill:#b09d3f;fill-rule:nonzero;"/><path d="M55.793,33.479l-0.876,0l0,29.65l0.876,0l0,-29.65Zm-1.68,0l-0.912,0l0,29.65l0.912,0l0,-29.65Zm-4.564,29.65l2.885,0l0,-29.65l-2.885,0l0,-0.803l9.53,0l0,0.803l-2.483,0l0,29.65l2.483,0l0,0.803l-9.53,0l0,-0.803Z" style="fill:#b09d3f;fill-rule:nonzero;"/><path d="M66.564,37.605c-0.328,0.474 -0.584,0.95 -0.839,1.424l0,17.308c0.255,0.511 0.511,0.985 0.839,1.423l0,-20.155Zm-1.643,3.25c-0.145,0.329 -0.255,0.693 -0.364,1.059c-0.585,1.789 -0.877,3.724 -0.877,5.732l0,0.11c0,2.008 0.292,3.944 0.877,5.732c0.109,0.366 0.219,0.694 0.364,1.023l0,-13.656Zm5.222,21.506c-1.461,-0.839 -2.739,-1.971 -3.798,-3.395c-1.096,-1.424 -1.934,-3.104 -2.519,-5.039c-0.621,-1.936 -0.913,-3.98 -0.913,-6.135l0,-0.11c0,-2.154 0.292,-4.198 0.913,-6.134c0.585,-1.898 1.423,-3.615 2.519,-5.038c1.059,-1.461 2.337,-2.63 3.834,-3.469c1.461,-0.841 3.068,-1.278 4.856,-1.278c1.133,0 2.155,0.146 3.067,0.364c0.914,0.256 1.753,0.621 2.483,1.06c0.768,0.438 1.425,0.949 2.045,1.57c0.584,0.584 1.206,1.205 1.753,1.898l-0.547,0.658c-0.475,-0.585 -1.023,-1.169 -1.57,-1.717c-0.585,-0.547 -1.242,-1.059 -1.936,-1.496c-0.693,-0.439 -1.497,-0.804 -2.374,-1.059c-0.876,-0.256 -1.861,-0.402 -2.956,-0.402c-1.645,0 -3.177,0.402 -4.565,1.205c-1.168,0.693 -2.191,1.57 -3.068,2.666l0,22.345c0.877,1.097 1.936,1.973 3.105,2.667c1.387,0.803 2.883,1.241 4.528,1.241c0.985,0 1.934,-0.146 2.81,-0.438c0.877,-0.292 1.681,-0.657 2.41,-1.096c0.768,-0.438 1.461,-0.986 2.082,-1.569c0.62,-0.621 1.169,-1.242 1.643,-1.936l0.584,0.657c-0.547,0.731 -1.131,1.388 -1.789,2.009c-0.657,0.62 -1.387,1.205 -2.191,1.68c-0.802,0.474 -1.679,0.876 -2.593,1.131c-0.912,0.292 -1.934,0.438 -2.994,0.438c-1.753,0 -3.359,-0.438 -4.819,-1.278" style="fill:#b09d3f;fill-rule:nonzero;"/><path d="M108.193,53.525l-5.807,-15.226l-5.695,15.226l11.502,0Zm-7.449,-22.018l12.342,32.132l-1.023,0l-3.506,-9.237l-12.195,0l-3.433,9.201l-0.804,0l9.859,-26.363l-0.475,-1.241l-10.332,27.604l-0.804,0l10.736,-28.664l-0.402,-1.022l-11.355,29.722l-0.987,0l12.379,-32.132Z" style="fill:#b09d3f;fill-rule:nonzero;"/><path d="M119.73,37.24c0,0 0,0.036 -0.037,0.036c-0.329,0.511 -0.657,1.023 -0.95,1.57l0,18.002c0.256,0.474 0.548,0.949 0.877,1.424c0.037,0.036 0.073,0.109 0.11,0.183l0,-21.215Zm-1.826,3.395c-0.182,0.439 -0.328,0.949 -0.475,1.461c-0.548,1.789 -0.84,3.652 -0.84,5.55l0,0.11c0,1.971 0.256,3.87 0.804,5.696c0.146,0.584 0.329,1.095 0.511,1.644l0,-14.461Zm4.93,21.726c-1.498,-0.876 -2.775,-2.008 -3.835,-3.432c-1.021,-1.461 -1.826,-3.14 -2.373,-5.039c-0.547,-1.936 -0.802,-3.98 -0.802,-6.098l0,-0.109c0,-2.045 0.29,-4.017 0.838,-5.952c0.585,-1.899 1.388,-3.615 2.447,-5.076c1.059,-1.46 2.337,-2.665 3.835,-3.542c1.496,-0.912 3.175,-1.35 5.074,-1.35c0.913,0 1.79,0.109 2.556,0.255c0.767,0.183 1.498,0.439 2.191,0.804c0.657,0.328 1.314,0.73 1.936,1.204c0.62,0.475 1.241,1.06 1.862,1.716l-0.512,0.731c-1.132,-1.168 -2.337,-2.118 -3.578,-2.775c-1.242,-0.694 -2.738,-1.059 -4.492,-1.059c-1.752,0 -3.322,0.438 -4.71,1.278c-1.022,0.621 -1.935,1.388 -2.737,2.3l0,23.223c0.802,0.84 1.679,1.534 2.628,2.081c1.424,0.804 3.03,1.242 4.819,1.242c0.914,0 1.791,-0.146 2.63,-0.366c0.839,-0.255 1.644,-0.547 2.373,-0.949c0.73,-0.401 1.425,-0.839 2.045,-1.35c0.621,-0.475 1.206,-1.023 1.717,-1.57l0,-7.924l-9.055,0l0,-0.986l9.857,0l0,9.238c-1.167,1.351 -2.592,2.446 -4.199,3.396c-1.606,0.913 -3.395,1.387 -5.368,1.387c-1.935,0 -3.65,-0.438 -5.147,-1.278" style="fill:#b09d3f;fill-rule:nonzero;"/><path d="M158.361,61.521c1.389,-0.839 2.593,-1.934 3.616,-3.286c0.985,-1.351 1.788,-2.957 2.3,-4.747c0.548,-1.825 0.839,-3.724 0.839,-5.696l0,-0.109c0,-1.936 -0.291,-3.835 -0.839,-5.66c-0.548,-1.826 -1.352,-3.433 -2.337,-4.783c-1.023,-1.388 -2.227,-2.483 -3.652,-3.323c-1.423,-0.84 -2.993,-1.278 -4.71,-1.278c-1.717,0 -3.286,0.438 -4.674,1.241c-1.132,0.658 -2.155,1.497 -3.03,2.557l0.037,0l0,22.492c0.911,1.023 1.898,1.899 3.066,2.556c1.425,0.84 2.994,1.241 4.674,1.241c1.717,0 3.287,-0.401 4.71,-1.205m-13.254,-24.099c-0.365,0.511 -0.694,1.059 -0.987,1.643l0,17.125c0.293,0.584 0.622,1.169 0.987,1.68l0,-20.448Zm-1.789,3.469c-0.147,0.366 -0.255,0.694 -0.328,1.059c-0.549,1.789 -0.841,3.689 -0.841,5.66l0,0.073c0,1.971 0.292,3.871 0.841,5.696l0.328,0.949l0,-13.437Zm5.259,21.434c-1.498,-0.877 -2.812,-2.045 -3.872,-3.506c-1.058,-1.46 -1.898,-3.14 -2.446,-5.039c-0.585,-1.935 -0.876,-3.943 -0.876,-6.024l0,-0.11c0,-2.118 0.291,-4.126 0.876,-6.025c0.548,-1.898 1.388,-3.578 2.446,-5.038c1.06,-1.498 2.374,-2.666 3.872,-3.506c1.496,-0.877 3.176,-1.314 5.037,-1.314c1.863,0 3.543,0.437 5.076,1.314c1.498,0.84 2.812,2.008 3.871,3.506c1.058,1.46 1.899,3.14 2.445,5.038c0.585,1.899 0.877,3.907 0.877,6.025l0,0.11c0,2.081 -0.292,4.089 -0.877,6.024c-0.546,1.899 -1.387,3.579 -2.445,5.039c-1.059,1.461 -2.373,2.629 -3.871,3.506c-1.533,0.876 -3.213,1.314 -5.076,1.314c-1.861,0 -3.541,-0.438 -5.037,-1.314" style="fill:#b09d3f;fill-rule:nonzero;"/><path d="M71.405,74.875l-0.555,0l0,-7.649l-0.386,0.386l-0.104,-0.103l0.49,-0.49l0.555,0l0,7.856Z" style="fill:#b09d3f;fill-rule:nonzero;"/><path d="M79.249,70.102c0,-0.872 -0.258,-1.621 -0.775,-2.247c-0.516,-0.626 -1.135,-0.94 -1.856,-0.94c-0.715,0 -1.33,0.314 -1.845,0.94c-0.516,0.626 -0.775,1.375 -0.775,2.247c0,0.863 0.259,1.606 0.775,2.228c0.515,0.622 1.13,0.932 1.845,0.932c0.73,0 1.352,-0.308 1.863,-0.925c0.512,-0.618 0.768,-1.363 0.768,-2.235m0.684,0c0.042,0.327 0.063,0.654 0.063,0.981c0,1.298 -0.306,2.386 -0.921,3.263c-0.615,0.878 -1.418,1.359 -2.406,1.445l0,-0.103c0.903,-0.215 1.591,-0.73 2.064,-1.548c0.353,-0.619 0.559,-1.35 0.618,-2.193c-0.652,0.954 -1.565,1.431 -2.733,1.431c-0.904,0 -1.678,-0.319 -2.323,-0.96c-0.645,-0.64 -0.968,-1.413 -0.968,-2.316c0,-0.911 0.323,-1.689 0.968,-2.334c0.645,-0.645 1.419,-0.968 2.323,-0.968c0.902,0 1.651,0.301 2.244,0.903c0.593,0.602 0.95,1.402 1.071,2.399" style="fill:#b09d3f;fill-rule:nonzero;"/><path d="M86.873,72.656c0,0.869 -0.31,1.613 -0.929,2.232c-0.619,0.62 -1.364,0.929 -2.232,0.929c-0.877,0 -1.625,-0.309 -2.244,-0.929c-0.619,-0.619 -0.929,-1.363 -0.929,-2.232c0,-0.446 0.086,-0.868 0.258,-1.264l0.103,0.051c-0.163,0.396 -0.245,0.8 -0.245,1.213c0,0.843 0.298,1.561 0.897,2.155c0.597,0.594 1.317,0.89 2.16,0.89c0.722,0 1.335,-0.296 1.838,-0.89c0.503,-0.594 0.755,-1.312 0.755,-2.155c0,-0.842 -0.249,-1.552 -0.748,-2.128c-0.499,-0.576 -1.109,-0.864 -1.831,-0.864c-0.474,0 -0.814,0.043 -1.02,0.129l1.793,-2.658l-2.516,0l0,-0.116l3.251,0l-1.6,2.477c0.93,0 1.701,0.306 2.317,0.916c0.615,0.611 0.922,1.358 0.922,2.244" style="fill:#b09d3f;fill-rule:nonzero;"/><path d="M96.237,70.889c0,-1.084 -0.353,-2.006 -1.062,-2.767c-0.707,-0.761 -1.552,-1.133 -2.529,-1.116c-0.961,0.018 -1.78,0.417 -2.453,1.2c-0.675,0.782 -1.012,1.723 -1.012,2.825c0,1.075 0.352,1.991 1.056,2.748c0.704,0.756 1.545,1.135 2.525,1.135c0.97,0 1.791,-0.395 2.465,-1.187c0.674,-0.791 1.01,-1.737 1.01,-2.838m0.53,0c0,1.135 -0.39,2.109 -1.167,2.922c-0.779,0.813 -1.723,1.219 -2.832,1.219c-1.136,0 -2.109,-0.389 -2.922,-1.168c-0.813,-0.778 -1.219,-1.722 -1.219,-2.831c0,-1.127 0.39,-2.098 1.167,-2.916c0.778,-0.816 1.727,-1.225 2.844,-1.225c1.128,0 2.096,0.389 2.911,1.167c0.812,0.779 1.218,1.722 1.218,2.832" style="fill:#b09d3f;fill-rule:nonzero;"/></g></svg>