<?xml version="1.0" encoding="UTF-8" standalone="no"?><!DOCTYPE svg PUBLIC "-//W3C//DTD SVG 1.1//EN" "http://www.w3.org/Graphics/SVG/1.1/DTD/svg11.dtd"><svg width="100%" height="100%" viewBox="0 0 1024 1024" version="1.1" xmlns="http://www.w3.org/2000/svg" xmlns:xlink="http://www.w3.org/1999/xlink" xml:space="preserve" xmlns:serif="http://www.serif.com/" style="fill-rule:evenodd;clip-rule:evenodd;stroke-linejoin:round;stroke-miterlimit:1.41421;"><g id="Twitter"><path d="M512,0.913c282.58,0 512,229.215 512,511.544c0,282.328 -229.42,511.543 -512,511.543c-282.58,0 -512,-229.215 -512,-511.543c0,-282.329 229.42,-511.544 512,-511.544Zm298.265,367.638c-21.947,9.717 -45.545,16.298 -70.3,19.232c25.269,-15.126 44.683,-39.069 53.822,-67.651c-23.654,14.025 -49.84,24.2 -77.714,29.682c-22.332,-23.76 -54.133,-38.611 -89.365,-38.611c-67.585,0 -122.378,54.763 -122.378,122.285c0,9.57 1.101,18.902 3.193,27.867c-101.716,-5.115 -191.908,-53.772 -252.28,-127.766c-10.515,18.04 -16.552,39.068 -16.552,61.454c0,42.424 21.617,79.861 54.427,101.788c-20.038,-0.624 -38.939,-6.124 -55.418,-15.309c-0.018,0.514 -0.018,1.045 -0.018,1.54c0,59.254 42.205,108.663 98.174,119.884c-10.258,2.805 -21.085,4.308 -32.223,4.308c-7.909,0 -15.58,-0.752 -23.03,-2.2c15.561,48.584 60.758,83.949 114.322,84.921c-41.893,32.799 -94.65,52.361 -152.013,52.361c-9.854,0 -19.617,-0.587 -29.177,-1.724c54.133,34.706 118.469,54.946 187.595,54.946c225.102,0 348.196,-186.324 348.196,-347.916c0,-5.299 -0.092,-10.579 -0.349,-15.822c23.947,-17.215 44.665,-38.757 61.088,-63.269Z" style="fill:#b09d40;"/></g></svg>